<svg width="32" height="32" viewBox="0 0 32 32" fill="none" xmlns="http://www.w3.org/2000/svg">
<path d="M16.3125 8.01367C11.9375 8.01367 8.45117 11.5684 8.45117 15.875C8.45117 20.25 11.9375 23.7363 16.3125 23.7363C20.6191 23.7363 24.1738 20.25 24.1738 15.875C24.1738 11.5684 20.6191 8.01367 16.3125 8.01367ZM16.3125 21.002C13.5098 21.002 11.1855 18.7461 11.1855 15.875C11.1855 13.0723 13.4414 10.8164 16.3125 10.8164C19.1152 10.8164 21.3711 13.0723 21.3711 15.875C21.3711 18.7461 19.1152 21.002 16.3125 21.002ZM26.293 7.74023C26.293 6.71484 25.4727 5.89453 24.4473 5.89453C23.4219 5.89453 22.6016 6.71484 22.6016 7.74023C22.6016 8.76562 23.4219 9.58594 24.4473 9.58594C25.4727 9.58594 26.293 8.76562 26.293 7.74023ZM31.4883 9.58594C31.3516 7.125 30.8047 4.9375 29.0273 3.16016C27.25 1.38281 25.0625 0.835938 22.6016 0.699219C20.0723 0.5625 12.4844 0.5625 9.95508 0.699219C7.49414 0.835938 5.375 1.38281 3.5293 3.16016C1.75195 4.9375 1.20508 7.125 1.06836 9.58594C0.931641 12.1152 0.931641 19.7031 1.06836 22.2324C1.20508 24.6934 1.75195 26.8125 3.5293 28.6582C5.375 30.4355 7.49414 30.9824 9.95508 31.1191C12.4844 31.2559 20.0723 31.2559 22.6016 31.1191C25.0625 30.9824 27.25 30.4355 29.0273 28.6582C30.8047 26.8125 31.3516 24.6934 31.4883 22.2324C31.625 19.7031 31.625 12.1152 31.4883 9.58594ZM28.207 24.8984C27.7285 26.2656 26.6348 27.291 25.3359 27.8379C23.2852 28.6582 18.5 28.4531 16.3125 28.4531C14.0566 28.4531 9.27148 28.6582 7.28906 27.8379C5.92188 27.291 4.89648 26.2656 4.34961 24.8984C3.5293 22.916 3.73438 18.1309 3.73438 15.875C3.73438 13.6875 3.5293 8.90234 4.34961 6.85156C4.89648 5.55273 5.92188 4.52734 7.28906 3.98047C9.27148 3.16016 14.0566 3.36523 16.3125 3.36523C18.5 3.36523 23.2852 3.16016 25.3359 3.98047C26.6348 4.45898 27.6602 5.55273 28.207 6.85156C29.0273 8.90234 28.8223 13.6875 28.8223 15.875C28.8223 18.1309 29.0273 22.916 28.207 24.8984Z" fill="#3AAA35"/>
</svg>
