<svg width="215" height="67" viewBox="0 0 215 67" fill="none" xmlns="http://www.w3.org/2000/svg">
<path d="M61.4747 22.22C61.4747 22.22 51.9382 -6.03066 20.0985 4.78766C20.0985 4.78766 2.66614 11.2991 1.23054 34.6277C1.23054 34.6277 0.66655 58.8279 25.7384 64.6216L30.6604 47.9071C30.6604 47.9071 15.3815 44.1643 20.8676 28.1675C20.8676 28.1675 26.5074 16.4776 39.8893 22.4251L61.4747 22.22Z" fill="#3AAA35"/>
<path d="M39.274 25.0911L36.813 33.4483H50.2462C50.2462 33.4483 55.0144 33.4483 53.989 39.9598L47.7851 64.6215H62.9615L69.1141 40.4213C69.1141 40.4213 73.7286 26.3216 59.8852 25.1423H39.274V25.0911Z" fill="#3AAA35"/>
<path d="M36.0955 36.3197H48.7596C48.7596 36.3197 51.9384 35.9095 51.0668 40.3702L44.863 64.5704H28.9175L36.0955 36.3197Z" fill="#3AAA35"/>
<path d="M102 35.4994C103.743 36.8837 104.614 38.832 104.614 41.3443C104.614 43.3439 104.102 45.0871 103.127 46.6253C102.153 48.1634 100.718 49.3427 98.8719 50.163C97.0262 50.9834 94.924 51.4448 92.5143 51.4448H88.3613L87.182 57.2898L78.0557 57.3411L83.9519 33.3972H94.5651C97.7952 33.3972 100.256 34.115 102 35.4994ZM95.5906 44.3693C96.2058 43.8054 96.5134 43.0363 96.5134 42.0108C96.5134 40.4214 95.488 39.6011 93.4884 39.6011H90.771L89.643 45.1897H92.9757C94.1037 45.241 94.9753 44.9333 95.5906 44.3693Z" fill="#3AAA35"/>
<path d="M110.459 56.572C108.921 55.8542 107.742 54.8288 106.921 53.547C106.101 52.2652 105.691 50.7271 105.691 48.9838C105.691 46.9842 106.204 45.1385 107.178 43.4978C108.203 41.8571 109.536 40.5753 111.331 39.6524C113.074 38.7295 115.074 38.2681 117.33 38.2681C119.38 38.2681 121.175 38.627 122.713 39.3448C124.251 40.0626 125.431 41.088 126.251 42.3698C127.071 43.6516 127.481 45.1897 127.481 46.933C127.481 48.9838 126.969 50.7783 125.994 52.419C124.969 54.0597 123.636 55.3415 121.841 56.2644C120.098 57.1873 118.099 57.6487 115.843 57.6487C113.741 57.6487 111.997 57.2898 110.459 56.572ZM118.714 50.4194C119.329 49.6504 119.637 48.6249 119.637 47.2919C119.637 46.4203 119.38 45.7024 118.919 45.1385C118.406 44.6257 117.74 44.3181 116.868 44.3181C115.843 44.3181 115.074 44.7283 114.407 45.4974C113.792 46.2664 113.484 47.2919 113.484 48.6249C113.484 49.4965 113.741 50.2143 114.202 50.7783C114.715 51.2911 115.381 51.5987 116.253 51.5987C117.278 51.5474 118.047 51.1885 118.714 50.4194Z" fill="#3AAA35"/>
<path d="M133.839 31.9617H141.53L136.454 57.2899H128.763L133.839 31.9617Z" fill="#3AAA35"/>
<path d="M165.32 38.627L153.835 57.6487C152.81 59.3407 151.784 60.6737 150.81 61.6479C149.836 62.5708 148.81 63.2886 147.683 63.6475C146.555 64.0577 145.273 64.2628 143.786 64.2628C142.76 64.2628 141.735 64.1089 140.71 63.8013C139.684 63.4937 138.864 63.1348 138.249 62.6221L141.581 57.2386C142.453 57.9051 143.376 58.2127 144.401 58.2127C145.17 58.2127 145.785 57.9564 146.298 57.4436L142.196 38.5757H149.887L151.784 48.6249L157.68 38.5757H165.32V38.627Z" fill="#3AAA35"/>
<path d="M175.318 39.4985L174.754 42.3185H184.854L183.675 48.1122H173.523L172.908 51.2397H184.906L183.675 57.2898H163.833L168.601 33.3972H188.033L186.803 39.4473H175.318V39.4985Z" fill="#3AAA35"/>
<path d="M211.413 46.8304C210.285 48.4198 208.696 49.599 206.645 50.3681L210.644 57.3411H202.287L198.903 51.3423H196.903L195.724 57.3411H187.674L192.443 33.4485H203.158C206.286 33.4485 208.747 34.115 210.49 35.4994C212.233 36.8837 213.105 38.7807 213.105 41.293C213.105 43.3952 212.541 45.241 211.413 46.8304ZM201.928 39.6011H199.21L198.082 45.1897H201.415C202.543 45.1897 203.415 44.9333 204.03 44.3693C204.645 43.8054 204.953 43.0363 204.953 42.0108C204.902 40.4214 203.927 39.6011 201.928 39.6011Z" fill="#3AAA35"/>
</svg>
