<svg width="31" height="32" viewBox="0 0 31 32" fill="none" xmlns="http://www.w3.org/2000/svg">
<path d="M25.9766 5.07422C23.1738 2.20312 19.3457 0.5625 15.2441 0.5625C6.9043 0.5625 0.0683594 7.39844 0.0683594 15.7383C0.0683594 18.4727 0.820312 21.0703 2.11914 23.3262L0 31.1875L7.99805 29.1367C10.2539 30.2988 12.7148 30.9824 15.2441 30.9824C23.6523 30.9824 30.625 24.1465 30.625 15.8066C30.625 11.7051 28.8477 7.94531 25.9766 5.07422ZM15.2441 28.3848C12.9883 28.3848 10.8008 27.7695 8.81836 26.6074L8.4082 26.334L3.62305 27.6328L4.92188 22.9844L4.58008 22.5059C3.34961 20.4551 2.66602 18.1309 2.66602 15.7383C2.66602 8.83398 8.33984 3.16016 15.3125 3.16016C18.6621 3.16016 21.8066 4.45898 24.1992 6.85156C26.5918 9.24414 28.0273 12.3887 28.0273 15.8066C28.0273 22.7109 22.2168 28.3848 15.2441 28.3848ZM22.2168 18.9512C21.8066 18.7461 19.9609 17.8574 19.6191 17.7207C19.2773 17.584 19.0039 17.5156 18.7305 17.9258C18.5254 18.2676 17.7734 19.1562 17.5684 19.4297C17.2949 19.6348 17.0898 19.7031 16.748 19.498C14.4922 18.4043 13.0566 17.5156 11.5527 14.9863C11.1426 14.3027 11.9629 14.3711 12.6465 12.9355C12.7832 12.6621 12.7148 12.457 12.6465 12.252C12.5781 12.0469 11.7578 10.2012 11.4844 9.44922C11.1426 8.69727 10.8691 8.76562 10.5957 8.76562C10.3906 8.76562 10.1172 8.76562 9.91211 8.76562C9.63867 8.76562 9.22852 8.83398 8.88672 9.24414C8.54492 9.6543 7.58789 10.543 7.58789 12.3887C7.58789 14.3027 8.88672 16.0801 9.0918 16.3535C9.29688 16.5586 11.7578 20.3867 15.5859 22.0273C17.9785 23.1211 18.9355 23.1895 20.166 22.9844C20.8496 22.916 22.3535 22.0957 22.6953 21.207C23.0371 20.3184 23.0371 19.5664 22.9004 19.4297C22.832 19.2246 22.5586 19.1562 22.2168 18.9512Z" fill="#3AAA35"/>
</svg>
